<svg viewBox="0 0 740 330" xmlns="http://www.w3.org/2000/svg">
<rect id="original-paper-backplate" x="0" y="0" width="740" height="330" fill="#ffffff"/><line x1="370.0" y1="39.0" x2="579.3" y2="69.9" stroke="#C6C2AF" stroke-width="0.5" stroke-opacity="0.55"/><line x1="370.0" y1="39.0" x2="690.7" y2="148.1" stroke="#C6C2AF" stroke-width="0.5" stroke-opacity="0.55"/><line x1="370.0" y1="39.0" x2="652.0" y2="237.0" stroke="#C6C2AF" stroke-width="0.5" stroke-opacity="0.55"/><line x1="370.0" y1="39.0" x2="481.4" y2="295.0" stroke="#C6C2AF" stroke-width="0.5" stroke-opacity="0.55"/><line x1="370.0" y1="39.0" x2="258.6" y2="295.0" stroke="#C6C2AF" stroke-width="0.5" stroke-opacity="0.55"/><line x1="370.0" y1="39.0" x2="88.0" y2="237.0" stroke="#C6C2AF" stroke-width="0.5" stroke-opacity="0.55"/><line x1="370.0" y1="39.0" x2="49.3" y2="148.1" stroke="#C6C2AF" stroke-width="0.5" stroke-opacity="0.55"/><line x1="370.0" y1="39.0" x2="160.7" y2="69.9" stroke="#C6C2AF" stroke-width="0.5" stroke-opacity="0.55"/><line x1="579.3" y1="69.9" x2="690.7" y2="148.1" stroke="#C6C2AF" stroke-width="0.5" stroke-opacity="0.55"/><line x1="579.3" y1="69.9" x2="652.0" y2="237.0" stroke="#C6C2AF" stroke-width="0.5" stroke-opacity="0.55"/><line x1="579.3" y1="69.9" x2="481.4" y2="295.0" stroke="#C6C2AF" stroke-width="0.5" stroke-opacity="0.55"/><line x1="579.3" y1="69.9" x2="258.6" y2="295.0" stroke="#C6C2AF" stroke-width="0.5" stroke-opacity="0.55"/><line x1="579.3" y1="69.9" x2="88.0" y2="237.0" stroke="#C6C2AF" stroke-width="0.5" stroke-opacity="0.55"/><line x1="579.3" y1="69.9" x2="49.3" y2="148.1" stroke="#C6C2AF" stroke-width="0.5" stroke-opacity="0.55"/><line x1="579.3" y1="69.9" x2="160.7" y2="69.9" stroke="#C6C2AF" stroke-width="0.5" stroke-opacity="0.55"/><line x1="690.7" y1="148.1" x2="652.0" y2="237.0" stroke="#C6C2AF" stroke-width="0.5" stroke-opacity="0.55"/><line x1="690.7" y1="148.1" x2="481.4" y2="295.0" stroke="#C6C2AF" stroke-width="0.5" stroke-opacity="0.55"/><line x1="690.7" y1="148.1" x2="258.6" y2="295.0" stroke="#C6C2AF" stroke-width="0.5" stroke-opacity="0.55"/><line x1="690.7" y1="148.1" x2="88.0" y2="237.0" stroke="#C6C2AF" stroke-width="0.5" stroke-opacity="0.55"/><line x1="690.7" y1="148.1" x2="49.3" y2="148.1" stroke="#C6C2AF" stroke-width="0.5" stroke-opacity="0.55"/><line x1="690.7" y1="148.1" x2="160.7" y2="69.9" stroke="#C6C2AF" stroke-width="0.5" stroke-opacity="0.55"/><line x1="652.0" y1="237.0" x2="481.4" y2="295.0" stroke="#C6C2AF" stroke-width="0.5" stroke-opacity="0.55"/><line x1="652.0" y1="237.0" x2="258.6" y2="295.0" stroke="#C6C2AF" stroke-width="0.5" stroke-opacity="0.55"/><line x1="652.0" y1="237.0" x2="88.0" y2="237.0" stroke="#C6C2AF" stroke-width="0.5" stroke-opacity="0.55"/><line x1="652.0" y1="237.0" x2="49.3" y2="148.1" stroke="#C6C2AF" stroke-width="0.5" stroke-opacity="0.55"/><line x1="652.0" y1="237.0" x2="160.7" y2="69.9" stroke="#C6C2AF" stroke-width="0.5" stroke-opacity="0.55"/><line x1="481.4" y1="295.0" x2="258.6" y2="295.0" stroke="#C6C2AF" stroke-width="0.5" stroke-opacity="0.55"/><line x1="481.4" y1="295.0" x2="88.0" y2="237.0" stroke="#C6C2AF" stroke-width="0.5" stroke-opacity="0.55"/><line x1="481.4" y1="295.0" x2="49.3" y2="148.1" stroke="#C6C2AF" stroke-width="0.5" stroke-opacity="0.55"/><line x1="481.4" y1="295.0" x2="160.7" y2="69.9" stroke="#C6C2AF" stroke-width="0.5" stroke-opacity="0.55"/><line x1="258.6" y1="295.0" x2="88.0" y2="237.0" stroke="#C6C2AF" stroke-width="0.5" stroke-opacity="0.55"/><line x1="258.6" y1="295.0" x2="49.3" y2="148.1" stroke="#C6C2AF" stroke-width="0.5" stroke-opacity="0.55"/><line x1="258.6" y1="295.0" x2="160.7" y2="69.9" stroke="#C6C2AF" stroke-width="0.5" stroke-opacity="0.55"/><line x1="88.0" y1="237.0" x2="49.3" y2="148.1" stroke="#C6C2AF" stroke-width="0.5" stroke-opacity="0.55"/><line x1="88.0" y1="237.0" x2="160.7" y2="69.9" stroke="#C6C2AF" stroke-width="0.5" stroke-opacity="0.55"/><line x1="49.3" y1="148.1" x2="160.7" y2="69.9" stroke="#C6C2AF" stroke-width="0.5" stroke-opacity="0.55"/><circle cx="370.0" cy="171.0" r="34" fill="#F7F5EF" stroke="#20242B" stroke-width="1.2"/><text x="370.0" y="161.5" text-anchor="middle" font-family="'Noto Sans SC'" font-size="12.5" font-weight="700" fill="#20242B">开发</text><text x="370.0" y="176.5" text-anchor="middle" font-family="'Noto Sans SC'" font-size="12.5" font-weight="700" fill="#20242B">词汇</text><circle cx="370.0" cy="39.0" r="19" fill="#FFFFFF" stroke="#2B5C82" stroke-width="1.4"/><g transform="translate(362.0,31.0) scale(0.667)" stroke="#2B5C82" fill="none" stroke-width="1.6" stroke-linecap="round" stroke-linejoin="round">
        <rect x="3" y="4.2" width="18" height="4.2" rx="1.1"/>
        <rect x="3" y="9.9" width="18" height="4.2" rx="1.1"/>
        <rect x="3" y="15.6" width="18" height="4.2" rx="1.1"/>
    </g><text x="370.0" y="13.0" text-anchor="middle" font-family="'Noto Sans SC'" font-size="8" font-weight="600" fill="#565C66">01</text><circle cx="579.3" cy="69.9" r="19" fill="#FFFFFF" stroke="#6B4A80" stroke-width="1.4"/><g transform="translate(571.3,61.9) scale(0.667)" stroke="#6B4A80" fill="none" stroke-width="1.6" stroke-linecap="round" stroke-linejoin="round">
        <path d="M4 5.2h16a1 1 0 011 1v9a1 1 0 01-1 1H9.2l-4 3.6v-3.6H4a1 1 0 01-1-1v-9a1 1 0 011-1z"/>
        <path d="M12 8.4l1 2.2 2.2 1-2.2 1-1 2.2-1-2.2-2.2-1 2.2-1z"/>
    </g><text x="579.2916457139372" y="43.9" text-anchor="middle" font-family="'Noto Sans SC'" font-size="8" font-weight="600" fill="#565C66">02</text><circle cx="690.7" cy="148.1" r="19" fill="#FFFFFF" stroke="#2E7A63" stroke-width="1.4"/><g transform="translate(682.7,140.1) scale(0.667)" stroke="#2E7A63" fill="none" stroke-width="1.6" stroke-linecap="round" stroke-linejoin="round">
        <rect x="5" y="8.4" width="14" height="10.6" rx="2.4"/>
        <line x1="12" y1="8.4" x2="12" y2="4.4"/>
        <circle cx="12" cy="3.3" r="1"/>
        <circle cx="9" cy="13.2" r="1"/>
        <circle cx="15" cy="13.2" r="1"/>
        <line x1="9" y1="16.6" x2="15" y2="16.6"/>
    </g><text x="690.6534043807749" y="122.1" text-anchor="middle" font-family="'Noto Sans SC'" font-size="8" font-weight="600" fill="#565C66">02b</text><circle cx="652.0" cy="237.0" r="19" fill="#FFFFFF" stroke="#93601F" stroke-width="1.4"/><g transform="translate(644.0,229.0) scale(0.667)" stroke="#93601F" fill="none" stroke-width="1.6" stroke-linecap="round" stroke-linejoin="round">
        <path d="M7 18a4 4 0 01-.5-7.96A5 5 0 0116.9 9.1 4.4 4.4 0 0117 18H7z"/>
        <line x1="12" y1="15.4" x2="12" y2="8.6"/>
        <path d="M9 11.4 12 8.4 15 11.4"/>
    </g><text x="651.9778714722133" y="267.0" text-anchor="middle" font-family="'Noto Sans SC'" font-size="8" font-weight="600" fill="#565C66">03</text><circle cx="481.4" cy="295.0" r="19" fill="#FFFFFF" stroke="#A1483C" stroke-width="1.4"/><g transform="translate(473.4,287.0) scale(0.667)" stroke="#A1483C" fill="none" stroke-width="1.6" stroke-linecap="round" stroke-linejoin="round">
        <rect x="5.2" y="4" width="13.6" height="16.6" rx="2"/>
        <path d="M9 3.3h6v2.1H9z"/>
        <path d="M8.4 12.6l2 2 4.6-4.8"/>
        <line x1="8.4" y1="17.2" x2="15.6" y2="17.2"/>
    </g><text x="481.3617586668378" y="325.0" text-anchor="middle" font-family="'Noto Sans SC'" font-size="8" font-weight="600" fill="#565C66">03b</text><circle cx="258.6" cy="295.0" r="19" fill="#FFFFFF" stroke="#8C6A15" stroke-width="1.4"/><g transform="translate(250.6,287.0) scale(0.667)" stroke="#8C6A15" fill="none" stroke-width="1.6" stroke-linecap="round" stroke-linejoin="round">
        <rect x="3.4" y="5" width="17.2" height="14" rx="1.6"/>
        <line x1="3.4" y1="9" x2="20.6" y2="9"/>
        <circle cx="5.9" cy="7" r=".55" fill="currentColor" stroke="none"/>
        <circle cx="7.7" cy="7" r=".55" fill="currentColor" stroke="none"/>
        <path d="M11.4 11.6l4.6 4.2-1.9.3-.9 1.9-1.8-6.4z" fill="currentColor" stroke="none"/>
    </g><text x="258.6382413331622" y="325.0" text-anchor="middle" font-family="'Noto Sans SC'" font-size="8" font-weight="600" fill="#565C66">04</text><circle cx="88.0" cy="237.0" r="19" fill="#FFFFFF" stroke="#2F6B5C" stroke-width="1.4"/><g transform="translate(80.0,229.0) scale(0.667)" stroke="#2F6B5C" fill="none" stroke-width="1.6" stroke-linecap="round" stroke-linejoin="round">
        <path d="M9.2 8l-4 4 4 4"/>
        <path d="M14.8 8l4 4-4 4"/>
        <line x1="13.3" y1="6.2" x2="10.7" y2="17.8"/>
    </g><text x="88.02212852778683" y="267.0" text-anchor="middle" font-family="'Noto Sans SC'" font-size="8" font-weight="600" fill="#565C66">05</text><circle cx="49.3" cy="148.1" r="19" fill="#FFFFFF" stroke="#96407A" stroke-width="1.4"/><g transform="translate(41.3,140.1) scale(0.667)" stroke="#96407A" fill="none" stroke-width="1.6" stroke-linecap="round" stroke-linejoin="round">
        <circle cx="12" cy="12" r="1.5" fill="currentColor" stroke="none"/>
        <ellipse cx="12" cy="12" rx="9" ry="3.5"/>
        <ellipse cx="12" cy="12" rx="9" ry="3.5" transform="rotate(60 12 12)"/>
        <ellipse cx="12" cy="12" rx="9" ry="3.5" transform="rotate(120 12 12)"/>
    </g><text x="49.34659561922501" y="122.1" text-anchor="middle" font-family="'Noto Sans SC'" font-size="8" font-weight="600" fill="#565C66">06</text><circle cx="160.7" cy="69.9" r="19" fill="#FFFFFF" stroke="#2E5E77" stroke-width="1.4"/><g transform="translate(152.7,61.9) scale(0.667)" stroke="#2E5E77" fill="none" stroke-width="1.6" stroke-linecap="round" stroke-linejoin="round">
        <ellipse cx="12" cy="6.2" rx="7" ry="2.5"/>
        <path d="M5 6.2v11.6a7 2.5 0 0014 0V6.2"/>
        <path d="M5 12a7 2.5 0 0014 0"/>
    </g><text x="160.70835428606273" y="43.9" text-anchor="middle" font-family="'Noto Sans SC'" font-size="8" font-weight="600" fill="#565C66">07</text></svg>
